# xmcd
#
# Track frame offsets: 
#        150
#        18050
#        38852
#        52165
#        62037
#        75142
#
# Disc length: 1142 seconds
#
# Revision: 0
# Processed by: cddbd v1.4PL0 Copyright (c) Steve Scherf et al.
# Submitted via: ExactAudioCopy v0.90a11
#
DISCID=3d047406
DTITLE=Union Avenue - Ace Of Spades
DYEAR=1900
DGENRE=
TTITLE0=Shot The Sheriff
TTITLE1=The Other Side
TTITLE2=Bad Moon Rising
TTITLE3=Ace Of Spades
TTITLE4=It's All Over Now
TTITLE5=Big River
EXTD=
EXTT0=
EXTT1=
EXTT2=
EXTT3=
EXTT4=
EXTT5=
PLAYORDER=
